<svg width="207" height="35" viewBox="0 0 207 35" fill="none" xmlns="http://www.w3.org/2000/svg">
<path d="M17.5 0L21.429 12.0922L34.1435 12.0922L23.8572 19.5656L27.7862 31.6578L17.5 24.1844L7.21376 31.6578L11.1428 19.5656L0.85651 12.0922L13.571 12.0922L17.5 0Z" fill="#D60000"/>
<path d="M60.5 0L64.429 12.0922L77.1435 12.0922L66.8572 19.5656L70.7862 31.6578L60.5 24.1844L50.2138 31.6578L54.1428 19.5656L43.8565 12.0922L56.571 12.0922L60.5 0Z" fill="#D60000"/>
<path d="M103.5 0L107.429 12.0922L120.143 12.0922L109.857 19.5656L113.786 31.6578L103.5 24.1844L93.2138 31.6578L97.1428 19.5656L86.8565 12.0922L99.571 12.0922L103.5 0Z" fill="#D60000"/>
<path d="M146.5 0L150.429 12.0922L163.143 12.0922L152.857 19.5656L156.786 31.6578L146.5 24.1844L136.214 31.6578L140.143 19.5656L129.857 12.0922L142.571 12.0922L146.5 0Z" fill="#D60000"/>
<path d="M189.5 0L193.429 12.0922L206.143 12.0922L195.857 19.5656L199.786 31.6578L189.5 24.1844L179.214 31.6578L183.143 19.5656L172.857 12.0922L185.571 12.0922L189.5 0Z" fill="#D60000"/>
</svg>
