<svg width="24" height="24" viewBox="0 0 24 24" fill="none" xmlns="http://www.w3.org/2000/svg">
<circle cx="12" cy="12" r="11.5" fill="white" stroke="black"/>
<path d="M11.2441 10.73H12.7591V17H11.2441V10.73ZM11.1691 8.48C11.1691 8.25 11.2591 8.055 11.4391 7.895C11.6291 7.735 11.8341 7.655 12.0541 7.655C12.2741 7.655 12.4741 7.735 12.6541 7.895C12.8341 8.055 12.9241 8.25 12.9241 8.48C12.9241 8.73 12.8341 8.93 12.6541 9.08C12.4741 9.23 12.2741 9.305 12.0541 9.305C11.8341 9.305 11.6291 9.23 11.4391 9.08C11.2591 8.93 11.1691 8.73 11.1691 8.48Z" fill="black"/>
</svg>
